<mxfile host="app.diagrams.net" agent="Mozilla/5.0 (Windows NT 10.0; Win64; x64) AppleWebKit/537.36 (KHTML, like Gecko) Chrome/129.0.0.0 Safari/537.36 Edg/129.0.0.0" version="24.7.17">
  <diagram name="Page-1" id="sV0R1wZQnwwsVDiABoDv">
    <mxGraphModel dx="1282" dy="565" grid="1" gridSize="10" guides="1" tooltips="1" connect="1" arrows="1" fold="1" page="1" pageScale="1" pageWidth="850" pageHeight="1100" math="0" shadow="0">
      <root>
        <mxCell id="0" />
        <mxCell id="1" parent="0" />
        <mxCell id="7hiqbphJJOnU1flKwhvM-1" value="&lt;font style=&quot;font-size: 10px;&quot;&gt;Agricultural System&lt;/font&gt;" style="shape=umlFrame;whiteSpace=wrap;html=1;pointerEvents=0;" parent="1" vertex="1">
          <mxGeometry x="180" y="110" width="520" height="610" as="geometry" />
        </mxCell>
        <mxCell id="7hiqbphJJOnU1flKwhvM-2" value="Farmers" style="shape=umlActor;verticalLabelPosition=bottom;verticalAlign=top;html=1;" parent="1" vertex="1">
          <mxGeometry x="70" y="210" width="30" height="60" as="geometry" />
        </mxCell>
        <mxCell id="7hiqbphJJOnU1flKwhvM-3" value="Sensor" style="shape=umlActor;verticalLabelPosition=bottom;verticalAlign=top;html=1;" parent="1" vertex="1">
          <mxGeometry x="70" y="490" width="30" height="60" as="geometry" />
        </mxCell>
        <mxCell id="7hiqbphJJOnU1flKwhvM-5" value="Sign Up" style="ellipse;whiteSpace=wrap;html=1;" parent="1" vertex="1">
          <mxGeometry x="250" y="220" width="100" height="40" as="geometry" />
        </mxCell>
        <mxCell id="7hiqbphJJOnU1flKwhvM-7" value="Enter plant and&lt;div&gt;sensor specification&lt;/div&gt;" style="ellipse;whiteSpace=wrap;html=1;" parent="1" vertex="1">
          <mxGeometry x="230" y="290" width="130" height="60" as="geometry" />
        </mxCell>
        <mxCell id="7hiqbphJJOnU1flKwhvM-8" value="Log in" style="ellipse;whiteSpace=wrap;html=1;" parent="1" vertex="1">
          <mxGeometry x="350" y="160" width="100" height="40" as="geometry" />
        </mxCell>
        <mxCell id="7hiqbphJJOnU1flKwhvM-9" value="Readings from sensors" style="ellipse;whiteSpace=wrap;html=1;" parent="1" vertex="1">
          <mxGeometry x="270" y="510" width="120" height="50" as="geometry" />
        </mxCell>
        <mxCell id="7hiqbphJJOnU1flKwhvM-10" value="Analyze readings" style="ellipse;whiteSpace=wrap;html=1;" parent="1" vertex="1">
          <mxGeometry x="490" y="510" width="120" height="50" as="geometry" />
        </mxCell>
        <mxCell id="7hiqbphJJOnU1flKwhvM-11" value="Recommend actions" style="ellipse;whiteSpace=wrap;html=1;" parent="1" vertex="1">
          <mxGeometry x="495" y="650" width="110" height="50" as="geometry" />
        </mxCell>
        <mxCell id="7hiqbphJJOnU1flKwhvM-15" value="" style="endArrow=open;endFill=1;endSize=12;html=1;rounded=0;" parent="1" edge="1">
          <mxGeometry width="160" relative="1" as="geometry">
            <mxPoint x="90" y="240" as="sourcePoint" />
            <mxPoint x="250" y="240" as="targetPoint" />
          </mxGeometry>
        </mxCell>
        <mxCell id="7hiqbphJJOnU1flKwhvM-16" value="" style="endArrow=open;endFill=1;endSize=12;html=1;rounded=0;" parent="1" edge="1">
          <mxGeometry width="160" relative="1" as="geometry">
            <mxPoint x="85" y="240" as="sourcePoint" />
            <mxPoint x="230" y="310" as="targetPoint" />
          </mxGeometry>
        </mxCell>
        <mxCell id="7hiqbphJJOnU1flKwhvM-17" value="" style="endArrow=open;endFill=1;endSize=12;html=1;rounded=0;exitX=0.5;exitY=0.5;exitDx=0;exitDy=0;exitPerimeter=0;" parent="1" source="7hiqbphJJOnU1flKwhvM-2" edge="1">
          <mxGeometry width="160" relative="1" as="geometry">
            <mxPoint x="190" y="180" as="sourcePoint" />
            <mxPoint x="350" y="180" as="targetPoint" />
          </mxGeometry>
        </mxCell>
        <mxCell id="7hiqbphJJOnU1flKwhvM-20" value="Include" style="endArrow=open;endSize=12;dashed=1;html=1;rounded=0;exitX=0.782;exitY=1.018;exitDx=0;exitDy=0;exitPerimeter=0;entryX=0.5;entryY=0;entryDx=0;entryDy=0;" parent="1" source="7hiqbphJJOnU1flKwhvM-7" target="7hiqbphJJOnU1flKwhvM-10" edge="1">
          <mxGeometry width="160" relative="1" as="geometry">
            <mxPoint x="290" y="414.40999999999997" as="sourcePoint" />
            <mxPoint x="430" y="410" as="targetPoint" />
          </mxGeometry>
        </mxCell>
        <mxCell id="7hiqbphJJOnU1flKwhvM-21" value="Include" style="endArrow=open;endSize=12;dashed=1;html=1;rounded=0;" parent="1" edge="1">
          <mxGeometry width="160" relative="1" as="geometry">
            <mxPoint x="390" y="534.41" as="sourcePoint" />
            <mxPoint x="490" y="534" as="targetPoint" />
          </mxGeometry>
        </mxCell>
        <mxCell id="7hiqbphJJOnU1flKwhvM-22" value="" style="endArrow=open;endFill=1;endSize=12;html=1;rounded=0;" parent="1" edge="1">
          <mxGeometry width="160" relative="1" as="geometry">
            <mxPoint x="110" y="534.4100000000001" as="sourcePoint" />
            <mxPoint x="270" y="534.4100000000001" as="targetPoint" />
          </mxGeometry>
        </mxCell>
        <mxCell id="7hiqbphJJOnU1flKwhvM-23" value="Extends" style="endArrow=block;endSize=16;endFill=0;html=1;rounded=0;exitX=0.5;exitY=1;exitDx=0;exitDy=0;entryX=0.5;entryY=0;entryDx=0;entryDy=0;" parent="1" source="7hiqbphJJOnU1flKwhvM-10" target="7hiqbphJJOnU1flKwhvM-11" edge="1">
          <mxGeometry width="160" relative="1" as="geometry">
            <mxPoint x="340" y="610" as="sourcePoint" />
            <mxPoint x="500" y="610" as="targetPoint" />
          </mxGeometry>
        </mxCell>
      </root>
    </mxGraphModel>
  </diagram>
</mxfile>
